# xmcd
# Copyright (C) 1995-1998 Ti Kan
#
# Track frame offsets:
#       150
#       26579
#       50432
#       71011
#       95150
#       111813
#       129732
#       151706
#       176740
#       198249
#
# Disc length: 3628 seconds
#
# Revision: 0
# Processed by: cddbd v1.4b42PL1 Copyright (c) Steve Scherf et al.
# Submitted via: CD-Transfer v1.0
#
DISCID=870e2a0a
DTITLE=Taunus - 2.0 M
DYEAR=2000
DGENRE=
TTITLE0=The Dream Of A Better Life
TTITLE1=Special Girl
TTITLE2=Hey Little Baby
TTITLE3=Paradise
TTITLE4=Runaway Train
TTITLE5=Alk
TTITLE6=8 Times
TTITLE7=Runaway 99
TTITLE8=Just A Little Fantasy
TTITLE9=A Man At The Age Of 18
EXTD=
EXTT0=
EXTT1=
EXTT2=
EXTT3=
EXTT4=
EXTT5=
EXTT6=
EXTT7=
EXTT8=
EXTT9=
PLAYORDER=
